<?xml version="1.0" encoding="iso-8859-1"?>
<!-- Uploaded to: SVG Repo, www.svgrepo.com, Generator: SVG Repo Mixer Tools -->
<svg fill="#000000" height="800px" width="800px" version="1.1" id="Capa_1" xmlns="http://www.w3.org/2000/svg" xmlns:xlink="http://www.w3.org/1999/xlink" 
	 viewBox="0 0 489.882 489.882" xml:space="preserve">
<g>
	<path d="M0.641,200.141c-1.8-3.1,0.4-7,4-7h18.8v-36.7c0-40.9,33.3-74.2,74.2-74.2h45.2v31h-45.2c-23.8,0-43.1,19.3-43.1,43.1v36.7
		h18.8c3.6,0,5.8,3.9,4,7l-34.3,59.5c-1.8,3.1-6.3,3.1-8.1,0L0.641,200.141z M418.341,119.041c9.3,0,16.8-7.5,16.8-16.8
		s-7.5-16.8-16.8-16.8s-16.8,7.5-16.8,16.8S409.041,119.041,418.341,119.041z M241.941,119.041c9.3,0,16.8-7.5,16.8-16.8
		s-7.5-16.8-16.8-16.8s-16.8,7.5-16.8,16.8C225.141,111.541,232.741,119.041,241.941,119.041z M170.441,173.441v-142.4
		c0-15.3,12.4-27.7,27.7-27.7h264c15.3,0,27.7,12.4,27.7,27.7v142.4c0,15.3-12.4,27.7-27.7,27.7h-264
		C182.841,201.141,170.441,188.741,170.441,173.441z M194.141,144.741c1.6-0.3,3.2-0.4,4.9-0.4c15.5,0,28,12.5,28,28
		c0,1.8-0.2,3.5-0.5,5.2h205c-0.1-1.1-0.2-2.3-0.2-3.5c0-15.5,12.5-28,28-28c2.4,0,4.7,0.3,6.9,0.9v-86c-2.2,0.6-4.5,0.9-6.9,0.9
		c-15.5,0-28-12.5-28-28c0-2.4,0.3-4.6,0.9-6.8h-205.7c0.3,1.7,0.5,3.4,0.5,5.2c0,15.5-12.5,28-28,28c-1.7,0-3.3-0.2-4.9-0.4
		L194.141,144.741L194.141,144.741z M269.541,102.241c0-33.5,27.1-60.6,60.6-60.6s60.6,27.1,60.6,60.6s-27.1,60.6-60.6,60.6
		S269.541,135.741,269.541,102.241z M306.241,117.341c0.3,6,2.2,10.7,5.8,13.9c3.9,3.5,8.8,5.6,14.6,6.3v7.8c0,1.1,0.9,1.9,1.9,1.9
		h6.9c1.1,0,1.9-0.9,1.9-1.9v-8c4.7-0.9,8.5-2.7,11.4-5.6c3.5-3.3,5.2-7.8,5.2-13.3c0-5.8-1.7-10.2-5.2-13.3
		c-3.4-3.1-8.8-6.2-16.2-9.4c-3.2-1.4-5.3-2.8-6.5-4.1c-1.2-1.4-1.7-3.1-1.7-5.3c0-2.1,0.5-3.9,1.6-5.3s2.7-2.1,5-2.1
		c2.2,0,4,0.8,5.3,2.5c1.1,1.4,1.7,3.3,1.9,5.7c0.1,1.1,1.1,1.9,2.2,1.9l11.4-0.2c1.2,0,2.3-1.1,2.2-2.3c-0.3-5-1.9-9.1-4.8-12.5
		c-3-3.5-7-5.7-11.9-6.7v-8.6c0-1.1-0.9-1.9-1.9-1.9h-6.9c-1.1,0-1.9,0.9-1.9,1.9v8.3c-5.3,0.8-9.5,2.7-12.8,5.8
		c-3.6,3.5-5.4,7.9-5.4,13.2c0,5.9,1.7,10.4,5.1,13.4s8.8,6.1,16.3,9c3.1,1.3,5.2,2.7,6.4,4.1c1.2,1.4,1.8,3.3,1.8,5.8
		c0,2.1-0.6,3.9-1.8,5.2c-1.2,1.3-2.9,2-5.2,2c-2.7,0-4.9-0.9-6.6-2.6c-1.4-1.4-2.2-3.6-2.5-6.5c-0.1-1.1-1.1-2-2.2-2l-11.3,0.2
		C307.241,115.141,306.141,116.141,306.241,117.341z M392.241,376.541h-45.2v31h45.2c40.9,0,74.2-33.3,74.2-74.2v-36.7h18.8
		c3.6,0,5.8-3.9,4-7l-34.3-59.4c-1.8-3.1-6.3-3.1-8.1,0l-34.3,59.5c-1.8,3.1,0.4,7,4,7h18.8v36.7
		C435.341,357.241,416.041,376.541,392.241,376.541z M247.941,404.441c9.3,0,16.8-7.5,16.8-16.8s-7.5-16.8-16.8-16.8
		c-9.3,0-16.8,7.5-16.8,16.8S238.641,404.441,247.941,404.441z M71.541,404.441c9.3,0,16.8-7.5,16.8-16.8s-7.5-16.8-16.8-16.8
		s-16.8,7.5-16.8,16.8C54.741,396.941,62.241,404.441,71.541,404.441z M0.041,458.841v-142.4c0-15.3,12.4-27.7,27.7-27.7h264
		c15.3,0,27.7,12.4,27.7,27.7v142.4c0,15.3-12.4,27.7-27.7,27.7h-264C12.441,486.541,0.041,474.141,0.041,458.841z M23.641,430.141
		c1.6-0.3,3.2-0.4,4.9-0.4c15.5,0,28,12.5,28,28c0,1.8-0.2,3.5-0.5,5.2h205c-0.1-1.1-0.2-2.3-0.2-3.5c0-15.5,12.5-28,28-28
		c2.4,0,4.7,0.3,6.9,0.9v-85.9c-2.2,0.6-4.5,0.9-6.9,0.9c-15.5,0-28-12.5-28-28c0-2.4,0.3-4.6,0.9-6.8h-205.6
		c0.3,1.7,0.5,3.4,0.5,5.2c0,15.5-12.5,28-28,28c-1.7,0-3.3-0.2-4.9-0.4v84.8H23.641z M99.041,387.641c0-33.5,27.1-60.6,60.6-60.6
		s60.6,27.1,60.6,60.6s-27.1,60.6-60.6,60.6C126.241,448.241,99.041,421.141,99.041,387.641z M135.741,402.841
		c0.3,6,2.2,10.7,5.8,13.9c3.9,3.5,8.8,5.6,14.6,6.3v7.8c0,1.1,0.9,1.9,1.9,1.9h6.9c1.1,0,1.9-0.9,1.9-1.9v-8
		c4.7-0.9,8.5-2.7,11.4-5.6c3.5-3.3,5.2-7.8,5.2-13.3c0-5.8-1.7-10.2-5.2-13.3c-3.4-3.1-8.8-6.2-16.2-9.4c-3.2-1.4-5.3-2.8-6.5-4.1
		c-1.2-1.4-1.7-3.1-1.7-5.3c0-2.1,0.5-3.9,1.6-5.3s2.7-2.1,5-2.1c2.2,0,4,0.8,5.3,2.5c1.1,1.4,1.7,3.3,1.9,5.7
		c0.1,1.1,1.1,1.9,2.2,1.9l11.4-0.2c1.2,0,2.3-1.1,2.2-2.3c-0.3-5-1.9-9.1-4.8-12.5c-3-3.5-7-5.7-11.9-6.7v-8.6
		c0-1.1-0.9-1.9-1.9-1.9h-6.9c-1.1,0-1.9,0.9-1.9,1.9v8.3c-5.3,0.8-9.5,2.7-12.8,5.8c-3.6,3.5-5.4,7.9-5.4,13.2
		c0,5.9,1.7,10.4,5.1,13.4c3.4,3,8.8,6.1,16.3,9c3.1,1.3,5.2,2.7,6.4,4.1s1.8,3.3,1.8,5.8c0,2.1-0.6,3.9-1.8,5.2
		c-1.2,1.3-2.9,2-5.2,2c-2.7,0-4.9-0.9-6.6-2.6c-1.4-1.4-2.2-3.6-2.5-6.5c-0.1-1.1-1.1-2-2.2-2l-11.3,0.2
		C136.741,400.541,135.741,401.541,135.741,402.841z"/>
</g>
</svg>